<svg id="Layer_1" data-name="Layer 1" xmlns="http://www.w3.org/2000/svg" viewBox="0 0 229.34 63.38">
  <defs>
    <style>
      .cls-1 {
        fill: #fff;
      }

      .cls-2 {
        fill: #ea2f00;
      }
    </style>
  </defs>
  <title>Artboard 1</title>
  <path class="cls-1" d="M30.57,11.21l-.9,6.23a10.53,10.53,0,0,1-3.93,6.75A11.49,11.49,0,0,1,18.22,27H9L7.24,39.55H0L5.45,1.63H21.87a8.65,8.65,0,0,1,6.72,2.82A7.92,7.92,0,0,1,30.57,11.21Zm-8.13,6.23.9-6.28a2.22,2.22,0,0,0-.58-1.9,2.43,2.43,0,0,0-1.88-.81H11.71L10,20.15H19.2a3.22,3.22,0,0,0,2.11-.81A3,3,0,0,0,22.44,17.44Z"/>
  <path class="cls-1" d="M32.62,32l4-28L44.41,0,39.87,31.58a1.09,1.09,0,0,0,.29,1,1.27,1.27,0,0,0,.94.38h1.37l-1,6.61H39.8a7.61,7.61,0,0,1-5.57-2.06A6,6,0,0,1,32.62,32Z"/>
  <path class="cls-1" d="M46,32l.3-2.06a8.08,8.08,0,0,1,3.18-5.47,9.87,9.87,0,0,1,6.17-2.06h8l.44-3.09a1.14,1.14,0,0,0-.26-1,1.25,1.25,0,0,0-1-.38H49.17l1-6.61H64.2a7.61,7.61,0,0,1,5.57,2.06,6,6,0,0,1,1.61,5.47l-3,20.64H53.19a7.61,7.61,0,0,1-5.57-2.06A6,6,0,0,1,46,32Zm7.49-2.17-.25,1.73a1.14,1.14,0,0,0,.26,1,1.24,1.24,0,0,0,1,.38h7.69l.64-4.44H55.13a1.63,1.63,0,0,0-1.08.38A1.51,1.51,0,0,0,53.51,29.85Z"/>
  <path class="cls-1" d="M78.16,11.38h7.18L82.43,31.58a1.14,1.14,0,0,0,.26,1,1.24,1.24,0,0,0,1,.38h9l3.1-21.56h7.18L98.5,42.31a8.08,8.08,0,0,1-3.18,5.47,9.87,9.87,0,0,1-6.17,2.06H70.44l4.76-6.61H89.76a1.67,1.67,0,0,0,1.05-.38,1.47,1.47,0,0,0,.57-1l.33-2.33H82.37a7.61,7.61,0,0,1-5.57-2.06A6,6,0,0,1,75.19,32Z"/>
  <path class="cls-1" d="M133.27,20.42,131.82,30.5A10.09,10.09,0,0,1,128.24,37,10.9,10.9,0,0,1,121,39.55H105.74l5.1-35.49L118.6,0,117,11.38h8.09a8.28,8.28,0,0,1,6.5,2.55A7.63,7.63,0,0,1,133.27,20.42Zm-8.66,10.29,1.51-10.51q.32-2.22-2-2.22H116l-2.15,15H122A2.34,2.34,0,0,0,124.61,30.72Z"/>
  <path class="cls-1" d="M153.09,39.55H144.2a7.61,7.61,0,0,1-5.57-2.06A6,6,0,0,1,137,32l1.89-13.11a8.08,8.08,0,0,1,3.18-5.47,9.87,9.87,0,0,1,6.17-2.06h8.89a7.62,7.62,0,0,1,5.57,2.06,6,6,0,0,1,1.61,5.47L162.43,32a8.08,8.08,0,0,1-3.18,5.47A9.87,9.87,0,0,1,153.09,39.55Zm2.23-8,1.76-12.24a1.09,1.09,0,0,0-.29-1,1.27,1.27,0,0,0-.94-.38h-8.21a1.66,1.66,0,0,0-1.05.38,1.46,1.46,0,0,0-.57,1l-1.76,12.24a1.09,1.09,0,0,0,.29,1,1.26,1.26,0,0,0,.94.38h8.21a1.67,1.67,0,0,0,1.05-.38A1.47,1.47,0,0,0,155.32,31.58Z"/>
  <path class="cls-1" d="M183.63,39.55h-8.89a7.61,7.61,0,0,1-5.57-2.06A6,6,0,0,1,167.56,32l1.89-13.11a8.08,8.08,0,0,1,3.18-5.47,9.87,9.87,0,0,1,6.17-2.06h8.89a7.62,7.62,0,0,1,5.57,2.06,6,6,0,0,1,1.61,5.47L193,32a8.08,8.08,0,0,1-3.18,5.47A9.87,9.87,0,0,1,183.63,39.55Zm2.23-8,1.76-12.24a1.09,1.09,0,0,0-.29-1,1.27,1.27,0,0,0-.94-.38h-8.21a1.66,1.66,0,0,0-1.05.38,1.46,1.46,0,0,0-.57,1l-1.76,12.24a1.09,1.09,0,0,0,.29,1,1.26,1.26,0,0,0,.94.38h8.21a1.67,1.67,0,0,0,1.05-.38A1.47,1.47,0,0,0,185.86,31.58Z"/>
  <path class="cls-1" d="M228.88,45.87h-8.72L211,30.39a3.58,3.58,0,0,0-3.36-1.62h-1.08l-1.55,10.78h-7.18l5-34.86L210.75,0l-3.19,22.16h1.08a5.83,5.83,0,0,0,2.13-.33,4.81,4.81,0,0,0,1.7-1.3l8.15-9.16h8.72L217.39,24.7a1.55,1.55,0,0,0-.45.76,1.14,1.14,0,0,0,.23.76Z"/>
  <g>
    <path class="cls-2" d="M169.58,54.81h3.79l-.51,3.55h-3.79Z"/>
    <path class="cls-2" d="M189.51,44.59,187.33,59.7a4,4,0,0,1-1.55,2.67,4.82,4.82,0,0,1-3,1h-7.24l.46-3.23h7.07a.8.8,0,0,0,.53-.19.74.74,0,0,0,.26-.48l.16-1.14h-4.57a3.72,3.72,0,0,1-2.72-1,2.94,2.94,0,0,1-.78-2.67l.92-6.41a4,4,0,0,1,1.55-2.67,4.82,4.82,0,0,1,3-1Zm-9.16,3.89-.86,6a.53.53,0,0,0,.14.48.62.62,0,0,0,.46.19h4.4l1.05-7.31h-4.4a.81.81,0,0,0-.51.19A.72.72,0,0,0,180.34,48.48Z"/>
    <path class="cls-2" d="M204.54,44.59,202.37,59.7a4,4,0,0,1-1.55,2.67,4.82,4.82,0,0,1-3,1h-7.24l.46-3.23h7.07a.8.8,0,0,0,.53-.19.74.74,0,0,0,.26-.48l.16-1.14h-4.57a3.72,3.72,0,0,1-2.72-1,2.94,2.94,0,0,1-.78-2.67l.92-6.41a4,4,0,0,1,1.55-2.67,4.82,4.82,0,0,1,3-1Zm-9.16,3.89-.86,6a.53.53,0,0,0,.14.48.62.62,0,0,0,.46.19h4.4l1.05-7.31h-4.4a.81.81,0,0,0-.51.19A.72.72,0,0,0,195.38,48.48Z"/>
  </g>
</svg>
